<?xml version="1.0" standalone="no"?>
<!DOCTYPE svg PUBLIC "-//W3C//DTD SVG 20010904//EN"
 "http://www.w3.org/TR/2001/REC-SVG-20010904/DTD/svg10.dtd">
<svg version="1.0" xmlns="http://www.w3.org/2000/svg"
 width="205pt" height="22pt" viewBox="0 0 533.000000 112.000000"
 preserveAspectRatio="xMidYMid meet">
<metadata>
Created by potrace 1.16, written by Peter Selinger 2001-2019
</metadata>
<g transform="translate(0.000000,112.000000) scale(0.100000,-0.100000)"
fill="#000000" stroke="none">
<path d="M0 560 l0 -560 2665 0 2665 0 0 560 0 560 -2665 0 -2665 0 0 -560z
m593 412 c81 -36 137 -131 122 -205 -11 -50 -51 -104 -100 -132 -25 -15 -45
-29 -45 -31 0 -2 20 -9 44 -15 160 -40 203 -246 74 -354 -61 -51 -90 -58 -273
-62 -93 -2 -200 -5 -237 -6 l-68 -3 0 420 0 419 220 -6 c185 -5 227 -9 263
-25z m810 18 c164 -24 245 -118 235 -272 -5 -78 -29 -137 -70 -175 -53 -50
-175 -83 -305 -83 l-63 0 0 -145 0 -145 -90 0 -90 0 0 415 0 415 158 0 c86 0
188 -5 225 -10z m919 -154 c84 -25 178 -118 178 -176 0 -32 -18 -40 -90 -40
-52 0 -65 7 -75 38 -10 35 -81 82 -123 82 -83 0 -139 -117 -129 -267 11 -149
58 -211 154 -200 47 5 77 26 100 70 19 37 56 50 122 42 l53 -7 -6 -31 c-10
-49 -52 -105 -104 -138 -162 -103 -380 -53 -456 104 -98 203 -18 460 161 520
60 20 155 21 215 3z m901 0 c51 -18 104 -61 123 -98 12 -23 19 -83 26 -227 6
-108 14 -206 19 -219 6 -15 17 -22 34 -22 50 0 61 -91 13 -104 -13 -3 -46 -6
-75 -6 -61 0 -105 30 -123 85 -6 19 -15 35 -20 35 -4 0 -20 -16 -34 -35 -42
-55 -108 -88 -176 -89 -218 -3 -280 304 -77 389 21 9 90 20 153 24 63 5 117
11 120 14 13 13 -11 113 -32 134 -42 42 -118 27 -152 -31 -21 -35 -23 -36 -82
-36 -34 0 -70 5 -81 10 -19 10 -18 12 5 58 32 62 64 91 128 113 63 22 176 24
231 5z m1065 5 c8 -4 16 -34 19 -68 l6 -60 -106 -5 c-126 -7 -158 -21 -201
-91 -34 -55 -45 -133 -45 -324 l-1 -123 -79 0 -78 0 -7 46 c-3 26 -6 110 -6
188 -1 155 -15 391 -25 419 -6 15 1 17 73 17 l79 0 13 -47 c18 -71 19 -73 27
-73 4 1 21 19 36 41 41 59 111 89 207 89 41 0 81 -4 88 -9z m749 -6 c62 -19
127 -65 149 -107 15 -30 15 -32 -2 -45 -16 -12 -68 -19 -104 -13 -8 1 -32 17
-52 36 -35 31 -43 34 -101 34 -73 0 -108 -15 -121 -53 -16 -46 22 -74 148
-108 126 -34 194 -66 229 -109 64 -76 41 -198 -49 -259 -56 -39 -104 -50 -210
-51 -133 0 -189 17 -248 76 -55 54 -58 78 -15 93 56 19 86 14 129 -25 l40 -36
99 4 c114 4 131 13 131 68 0 51 -29 73 -126 95 -222 49 -284 99 -284 226 0 62
1 63 48 109 29 28 66 52 97 62 63 21 176 22 242 3z"/>
<path d="M296 833 c-3 -21 -6 -66 -6 -100 l0 -63 91 0 c90 0 91 0 125 34 38
38 43 70 19 115 -19 37 -60 51 -150 51 l-72 0 -7 -37z"/>
<path d="M293 459 c4 -46 7 -101 7 -123 l0 -38 114 3 c103 4 117 6 139 27 29
28 40 84 26 135 -15 55 -51 69 -183 75 l-109 5 6 -84z"/>
<path d="M1200 731 l0 -131 73 0 c143 0 187 31 187 131 0 31 -3 65 -6 74 -12
30 -66 48 -161 53 l-93 5 0 -132z"/>
<path d="M3055 475 c-53 -19 -65 -38 -65 -106 0 -50 3 -60 26 -78 38 -30 77
-27 119 10 46 40 62 73 71 137 l7 52 -59 0 c-33 -1 -77 -7 -99 -15z"/>
</g>
</svg>
